<svg xmlns="http://www.w3.org/2000/svg" viewBox="0 0 445 357.62"><defs><style>.cls-1{fill:#010101;}.cls-2{fill:#e0231e;}.cls-3{fill:#fff;}.cls-4{fill:#f4b029;}.cls-5{fill:#f4da5f;}.cls-6{fill:#be5c40;}.cls-7{fill:#f2b72c;}</style></defs><g id="Layer_2" data-name="Layer 2"><g id="bg1"><path class="cls-1" d="M344.57,43.76l2.82-38.07L325.67,4.31l.57-3.53-33,2.57-1,4.42-2.72-4.13-26.5,2.07-1,4.73L259.71,6,236.49,7.79,233.94,0l-41.8,2.72L191,9.33A24.46,24.46,0,0,0,174,2L145.14.81l-2.23,8.38A19.89,19.89,0,0,0,141,7.47a19.3,19.3,0,0,0-14.64-3.93L94.2,7.43l-3,28.34,5.86,7.52,3.64,31.2,16.37,14.6,28.16-3.41a20.47,20.47,0,0,0,7-2.11l37,1.57L189,86.86,217,85,218.54,78l4.14-.27,1.67,6.85,20.76-1.35L247,89l27.87-2.17.59-3,1,2.89,25.9-2-.09,1.21,36.39,2.34,16.4-14.59,8.6-28.85Z"></path><rect class="cls-1" x="89.42" y="73.49" width="263.9" height="39.28"></rect><path class="cls-1" d="M425.93,120.4,445,65.34,396,52.49l-1.75,4.68-1.42-.12-5.62-.33c-14.22-.83-26.27,2.55-35.81,10a42.12,42.12,0,0,0-12.66,16A45.52,45.52,0,0,0,314.32,75L262,72.65l-4.85,17.67-5.09-19.85H192.82l.14-.54-12.37.54h-3.07l0,.14-41.55,1.84-.66,4-29.41,1.63,6.59-24L57.21,45.51,56,50.79c-.69,0-1.29,0-1.81.08l-5.87.43C33.59,52.39,21.67,57.51,12.9,66.5,3.33,76.24-1,89,.18,104.28A50.53,50.53,0,0,0,3.78,120l10.64,18.37L4.81,189.85l19.47,24.92,4.88,2.31c13.27,6.28,26.55,9.47,39.48,9.47,1.92,0,3.86-.07,5.76-.21,14.73-1.09,26.88-6.11,36.11-14.92l0,0a45.14,45.14,0,0,0,9.69-13.58l1.09,23.77H210l4-17.13h12.32l2.41,17.13H344.58A78.3,78.3,0,0,0,366.1,226c1.42.08,2.84.13,4.23.13,12.28,0,23-3.27,31.83-9.71l0,0a43.57,43.57,0,0,0,10.61-11.18l15.34-21.09c.67-.87,1.32-1.75,1.93-2.66l.85-1.18h.33a52.19,52.19,0,0,0,7.57-25C439.66,141.18,435.32,129.48,425.93,120.4Z"></path><path class="cls-2" d="M93.46,180.86Q80.7,193.06,59.75,194.6q-21.86,1.62-44.82-9.26l7.15-38.25L39,153.27q10.22,3.25,17.38,2.72,8.25-.62,7.81-6.68-.33-4.55-13.9-8.11-17.5-4.6-25.46-9.74-14.19-9.42-15.56-28Q7.85,84.52,19.35,72.81,30.17,61.73,48.9,60.33l5.88-.43c.73-.06,1.81-.07,3.23,0s3.17.08,5.27.18l1-4.26,36.49,5.66-10.69,39c-3.83-1.88-22.21-7.21-30-6-5.83.88-8.67,2.67-8.37,6.71q.29,3.8,13.66,7.38,17.34,4.82,24.93,10,14,9.64,15.37,28Q107.24,167.46,93.46,180.86Z"></path><path class="cls-2" d="M172.09,113.76l-24.74,1,3.46,69.53L121,185.82l-3.62-70-24.19,1.45,6.1-29.7,44.08-2.44.65-4,37-1.64Z"></path><path class="cls-2" d="M348.49,123q.74-16.44-9-27.3T313.91,84.09l-44.87-2-8.24,30,6.87.31-3.28,72.83,31.29,1.41,1.37-30.46,12.07,31.07,37.43,1.68-15.9-34.11Q347.51,144.54,348.49,123Z"></path><path class="cls-1" d="M304.73,112.06l-9.15-.29L295,132l9.14.29a10.11,10.11,0,1,0,.64-20.21Z"></path><path class="cls-2" d="M413.61,185.49Q400,195.4,380,194.24q-20.89-1.22-41.25-14.4l11.57-35.3,15.21,8q9.25,4.35,16.1,4.75,7.9.47,8.24-5.33.25-4.35-12.13-9.43-16-6.57-22.88-12.42-12.23-10.7-11.2-28.45,1.07-18.11,13.43-27.74,11.63-9.14,29.53-8.09l5.62.33q1,.06,3.06.36c1.34.2,3,.48,5,.84l1.46-3.92L433,71.61l-13,38.66a79.77,79.77,0,0,0-13.16-6.76q-9.12-3.81-13.86-4.08-8.42-.5-8.76,5.3-.21,3.63,12,8.7Q412,120.17,418.5,126q12,10.88,11,28.44Q428.35,174.54,413.61,185.49Z"></path><path class="cls-2" d="M237.53,185.3l-2.66-15.11h-29L201.5,185.3H167.18l20.57-76.55-9.47-.09,6.81-29.12H244.9L272.05,185.3Z"></path><path class="cls-3" d="M136.81,35Q143,30.11,142,21.8A13.06,13.06,0,0,0,127.11,9.88L100,13.16,98.3,29.72l3.6-.44,4.56,39,26.47-3.2a15.08,15.08,0,0,0,10.13-5.24,13.74,13.74,0,0,0,3.36-11.2,17.51,17.51,0,0,0-2.84-8.32A21.11,21.11,0,0,0,136.81,35Z"></path><path class="cls-3" d="M190.79,64l-8.12-17.59q8.88-5.55,9.36-17.16.36-8.84-4.82-14.66A18.11,18.11,0,0,0,173.7,8.41L150,7.41,145.7,23.56l3.63.15-1.6,39.18,16.52.7.67-16.39,6.44,16.69,19.22.81.54,0Z"></path><polygon class="cls-3" points="337.73 49.78 340.55 11.65 321.58 10.45 319.21 26.69 322.83 26.97 319.96 65.74 350.23 67.69 355.29 50.74 337.73 49.78"></polygon><polygon class="cls-3" points="297.72 9.41 293.59 32 285.92 10.33 269.44 11.62 265.24 34.22 257.64 12.54 236.72 14.18 254.45 68.49 276.08 66.8 280.35 44.77 287.94 65.87 309.57 64.18 318.65 7.77 297.72 9.41"></polygon><path class="cls-3" d="M229,63.42l-1.91-7.82-15.19,1-1.77,8.06-18.45,1.2,8.34-41.63L195,24.5,197.6,8.76l31.82-2.07,18.16,55.53ZM217.42,25.05l-3.29,16.73,8.38-.55Z"></path><path class="cls-1" d="M170.44,24.06l-4.66-.15-.33,10.31,4.67.14a5.15,5.15,0,1,0,.32-10.3Z"></path><path class="cls-1" d="M120.53,25.33l-3.42.35.77,7.55,3.42-.34a3.8,3.8,0,1,0-.77-7.56Z"></path><path class="cls-1" d="M123.71,44.41l-4.37.44,1,9.66,4.37-.44a4.85,4.85,0,0,0-1-9.66Z"></path><polygon class="cls-1" points="222.91 112.03 214.48 142.99 230.28 143.11 222.91 112.03"></polygon><path class="cls-1" d="M173.24,292.41c15.23,6.14,33.7,10.46,53.4,8.17,45-5.24,39.56-47.53,39.56-47.53l-12.37,1.44c23.22-18.8,10.25-48,10.25-48L173.24,243l-.22-.08V292.5Z"></path><path class="cls-1" d="M267.49,292.41c-15.23,6.14-33.7,10.46-53.4,8.17-45-5.24-39.56-47.53-39.56-47.53l12.37,1.44c-23.23-18.8-10.25-48-10.25-48L267.49,243l.21-.08V292.5Z"></path><path class="cls-1" d="M315,250.56a43.69,43.69,0,0,0,5.83-24.17,56.55,56.55,0,0,0-4.08-19.12,5.83,5.83,0,0,0-7.49-3.05l-88.67,35.66-.22-.08v6.29l.22.08,90.84-36.53s13,29.21-10.25,48l12.37-1.44S319,298.5,274,303.74c-19.72,2.29-38.22-2-53.46-8.19l-.16.11v6.27l.22-.08a118.27,118.27,0,0,0,42.52,8.35,100.73,100.73,0,0,0,11.55-.66c15.37-1.79,27.11-7.76,34.9-17.76,12.25-15.71,9.87-35.48,9.76-36.31A5.81,5.81,0,0,0,315,250.56Z"></path><path class="cls-3" d="M220.58,295.57c15.23,6.14,33.7,10.46,53.4,8.17,45-5.24,39.56-47.53,39.56-47.53l-12.37,1.44c23.22-18.8,10.25-48,10.25-48l-90.84,36.53-.22-.08v49.57Z"></path><path class="cls-1" d="M125.74,250.56a43.69,43.69,0,0,1-5.83-24.17A56.27,56.27,0,0,1,124,207.27a5.83,5.83,0,0,1,7.49-3.05l88.67,35.66.21-.08v6.29l-.21.08-90.84-36.53s-13,29.21,10.25,48l-12.37-1.44s-5.44,42.29,39.56,47.53c19.72,2.29,38.21-2,53.45-8.19l.16.11v6.27l-.21-.08a118.31,118.31,0,0,1-42.52,8.35,100.6,100.6,0,0,1-11.55-.66c-15.37-1.79-27.11-7.76-34.91-17.76-12.24-15.71-9.87-35.48-9.76-36.31A5.82,5.82,0,0,1,125.74,250.56Z"></path><path class="cls-3" d="M220.15,295.57c-15.23,6.14-33.7,10.46-53.4,8.17-45-5.24-39.56-47.53-39.56-47.53l12.37,1.44c-23.23-18.8-10.25-48-10.25-48l90.84,36.53.21-.08v49.57Z"></path><polygon class="cls-1" points="274.72 282.12 285.75 244.39 247.32 235.12 219.94 206.76 192.65 235.19 154.24 244.57 165.38 282.27 154.34 320 192.78 329.26 220.15 357.63 247.45 329.19 285.86 319.82 274.72 282.12"></polygon><polygon class="cls-1" points="294.63 295.77 283.61 258.49 294.52 221.17 296.45 214.58 289.78 212.97 251.74 203.8 224.65 175.73 219.93 170.84 215.22 175.75 188.21 203.89 150.19 213.16 143.52 214.79 145.47 221.37 156.49 258.66 145.57 295.98 143.65 302.56 150.32 304.17 188.36 313.35 215.45 341.41 220.17 346.3 224.88 341.4 251.89 313.26 289.91 303.98 296.57 302.36 294.63 295.77"></polygon><polygon class="cls-4" points="276.79 258.5 288.25 219.33 248.35 209.71 219.94 180.28 191.61 209.79 151.74 219.52 163.3 258.65 151.85 297.82 191.74 307.43 220.16 336.87 248.49 307.36 288.36 297.63 276.79 258.5"></polygon><polygon class="cls-5" points="288.67 219.33 248.78 209.71 220.36 180.28 220.47 258.57 288.67 219.33"></polygon><polygon class="cls-4" points="220.05 258.57 288.36 297.63 276.79 258.5 288.25 219.33 220.05 258.57 220.05 258.57"></polygon><polygon class="cls-3" points="220.36 258.57 220.25 180.28 191.92 209.79 152.05 219.52 220.36 258.57 220.36 258.57"></polygon><polygon class="cls-6" points="220.47 336.87 248.8 307.36 288.67 297.63 220.36 258.57 220.47 336.87"></polygon><polygon class="cls-5" points="151.85 297.82 220.05 258.57 151.74 219.52 163.3 258.65 151.85 297.82"></polygon><polygon class="cls-4" points="220.36 258.57 151.85 297.82 191.74 307.43 219.35 336.87 220.36 258.57 220.36 258.57"></polygon><ellipse class="cls-1" cx="220.05" cy="258.21" rx="48.06" ry="47.97"></ellipse><ellipse class="cls-1" cx="220.05" cy="258.21" rx="38.56" ry="38.48"></ellipse><path class="cls-5" d="M172,258.21a50.17,50.17,0,0,0,4.44,18.05,47.65,47.65,0,0,0,4.61,8,48.38,48.38,0,0,0,6,6.94,47.73,47.73,0,0,0,66,0,48.53,48.53,0,0,0,6-6.95,47.12,47.12,0,0,0,4.6-8,50.44,50.44,0,0,0,4.45-18.05,45.8,45.8,0,0,1-2.88,18.7A47.36,47.36,0,0,1,255,293.1l-1.73,1.7c-.6.54-1.19,1.09-1.8,1.62s-1.26,1-1.9,1.52-1.3,1-2,1.42a49,49,0,0,1-8.52,4.69,48.75,48.75,0,0,1-38,0,47.86,47.86,0,0,1-26.18-27.13A45.8,45.8,0,0,1,172,258.21Z"></path><path class="cls-7" d="M219.86,218.47c-22.13,0-40.07,18.67-40.07,38.28,0,12.91,7.8,23,19.42,28.39v4.53a4.42,4.42,0,0,0,4.41,4.41h32.47a4.42,4.42,0,0,0,4.42-4.42v-4.53c11.62-5.39,19.41-15.47,19.41-28.38C259.92,237.14,242,218.47,219.86,218.47Zm3.23,33.82,5.12-5.11a2.76,2.76,0,1,1,3.91,3.9L227,256.19a2.76,2.76,0,0,1-3.91-3.9Zm-14.75-5.11a2.76,2.76,0,0,1,3.91,0l5.12,5.11a2.76,2.76,0,0,1-2,4.71,2.76,2.76,0,0,1-2-.81l-5.12-5.11A2.75,2.75,0,0,1,208.34,247.18Zm-5.93,29.54a12,12,0,1,1,11.62-12A11.84,11.84,0,0,1,202.41,276.72Zm11.62,2s6.23-10,6.24-10l5.79,10S214,278.78,214,278.76Zm24.56-2a12,12,0,1,1,11.62-12A11.83,11.83,0,0,1,238.59,276.72Z"></path><path class="cls-3" d="M215.09,228.43c-2.76-4.36-10.36-4.49-17-.31s-9.74,11.1-7,15.45,10.36,4.49,17,.31S217.85,232.78,215.09,228.43Z"></path></g></g></svg>